<svg width="149" height="94" viewBox="0 0 149 94" fill="none" xmlns="http://www.w3.org/2000/svg">
<path d="M20.7439 36.45C19.4106 36.45 18.3773 36.0833 17.6439 35.35C16.9439 34.6167 16.5939 33.5833 16.5939 32.25V4.5C16.5939 3.13333 16.9773 2.1 17.7439 1.4C18.5106 0.666665 19.5939 0.299998 20.9939 0.299998C22.1606 0.299998 23.0773 0.533331 23.7439 0.999998C24.4439 1.43333 25.0773 2.16667 25.6439 3.2L36.3939 22.5H34.6439L45.3439 3.2C45.9439 2.16667 46.5773 1.43333 47.2439 0.999998C47.9439 0.533331 48.8773 0.299998 50.0439 0.299998C51.3773 0.299998 52.3939 0.666665 53.0939 1.4C53.8273 2.1 54.1939 3.13333 54.1939 4.5V32.25C54.1939 33.5833 53.8439 34.6167 53.1439 35.35C52.4439 36.0833 51.4106 36.45 50.0439 36.45C48.7106 36.45 47.6773 36.0833 46.9439 35.35C46.2439 34.6167 45.8939 33.5833 45.8939 32.25V15.05H46.9439L38.8939 29.05C38.4273 29.7833 37.9273 30.3333 37.3939 30.7C36.8939 31.0667 36.2106 31.25 35.3439 31.25C34.5106 31.25 33.8273 31.0667 33.2939 30.7C32.7606 30.3333 32.2773 29.7833 31.8439 29.05L23.7439 15H24.8939V32.25C24.8939 33.5833 24.5439 34.6167 23.8439 35.35C23.1439 36.0833 22.1106 36.45 20.7439 36.45ZM77.6834 36.55C74.1167 36.55 70.9834 35.8 68.2834 34.3C65.5834 32.7667 63.4834 30.6333 61.9834 27.9C60.5167 25.1667 59.7834 21.9833 59.7834 18.35C59.7834 15.6167 60.2001 13.1333 61.0334 10.9C61.9001 8.66667 63.1167 6.75 64.6834 5.15C66.2834 3.55 68.1834 2.33333 70.3834 1.5C72.5834 0.633332 75.0167 0.199999 77.6834 0.199999C81.2501 0.199999 84.3667 0.949999 87.0334 2.45C89.7334 3.95 91.8334 6.06666 93.3334 8.8C94.8334 11.5 95.5834 14.6833 95.5834 18.35C95.5834 21.0833 95.1501 23.5667 94.2834 25.8C93.4501 28.0333 92.2334 29.9667 90.6334 31.6C89.0667 33.2 87.1834 34.4333 84.9834 35.3C82.7834 36.1333 80.3501 36.55 77.6834 36.55ZM77.6834 28.85C79.4501 28.85 80.9501 28.4333 82.1834 27.6C83.4167 26.7667 84.3667 25.5667 85.0334 24C85.7001 22.4333 86.0334 20.55 86.0334 18.35C86.0334 15.05 85.3001 12.4833 83.8334 10.65C82.3667 8.81666 80.3167 7.9 77.6834 7.9C75.9501 7.9 74.4501 8.31667 73.1834 9.15C71.9501 9.95 71.0001 11.1333 70.3334 12.7C69.6667 14.2333 69.3334 16.1167 69.3334 18.35C69.3334 21.65 70.0667 24.2333 71.5334 26.1C73.0001 27.9333 75.0501 28.85 77.6834 28.85ZM105.015 36.45C104.415 36.45 103.865 36.35 103.365 36.15C102.865 35.95 102.432 35.6667 102.065 35.3C101.732 34.9 101.465 34.4167 101.265 33.85C101.099 33.2833 101.015 32.6333 101.015 31.9V4.6C101.015 3.2 101.382 2.13333 102.115 1.4C102.849 0.666665 103.915 0.299998 105.315 0.299998C106.715 0.299998 107.765 0.666665 108.465 1.4C109.199 2.13333 109.565 3.2 109.565 4.6V22.7H108.165L124.015 2.9C124.749 1.96666 125.432 1.3 126.065 0.899999C126.732 0.499998 127.632 0.299998 128.765 0.299998C129.532 0.299998 130.182 0.466664 130.715 0.799997C131.282 1.13333 131.715 1.61667 132.015 2.25C132.315 2.85 132.465 3.56667 132.465 4.4V32.1C132.465 33.5333 132.099 34.6167 131.365 35.35C130.665 36.0833 129.615 36.45 128.215 36.45C126.815 36.45 125.749 36.0833 125.015 35.35C124.315 34.6167 123.965 33.5333 123.965 32.1V14H125.315L109.515 33.85C108.782 34.75 108.099 35.4167 107.465 35.85C106.865 36.25 106.049 36.45 105.015 36.45ZM4.90449 93.2C3.60449 93.2 2.60449 92.85 1.90449 92.15C1.23783 91.45 0.904492 90.45 0.904492 89.15V80.95C0.904492 78.25 2.27116 76.9 5.00449 76.9H7.95449L3.15449 78.2C5.02116 76.6333 6.40449 74.1833 7.30449 70.85C8.20449 67.4833 8.65449 63.2333 8.65449 58.1V53.5C8.65449 51.9667 9.05449 50.8 9.85449 50C10.6878 49.1667 11.8712 48.75 13.4045 48.75H30.6545C32.2212 48.75 33.4045 49.1667 34.2045 50C35.0378 50.8 35.4545 51.9667 35.4545 53.5V80.2L32.1045 76.9H36.3545C37.6878 76.9 38.7045 77.25 39.4045 77.95C40.1045 78.6167 40.4545 79.6167 40.4545 80.95V89.15C40.4545 91.85 39.1378 93.2 36.5045 93.2C35.2045 93.2 34.2045 92.85 33.5045 92.15C32.8378 91.45 32.5045 90.45 32.5045 89.15V84H8.85449V89.15C8.85449 91.85 7.53783 93.2 4.90449 93.2ZM13.5545 76.9H26.2545V55.85H17.1045V59.1C17.1045 63.2 16.8045 66.7167 16.2045 69.65C15.6045 72.55 14.7212 74.9667 13.5545 76.9ZM49.5654 84C47.9988 84 46.7988 83.6 45.9654 82.8C45.1654 81.9667 44.7654 80.7833 44.7654 79.25V53.5C44.7654 51.9667 45.1654 50.8 45.9654 50C46.7988 49.1667 47.9988 48.75 49.5654 48.75H66.5154C67.7154 48.75 68.6154 49.05 69.2154 49.65C69.8154 50.25 70.1154 51.1167 70.1154 52.25C70.1154 53.4167 69.8154 54.3167 69.2154 54.95C68.6154 55.55 67.7154 55.85 66.5154 55.85H53.5654V62.55H65.4154C66.5821 62.55 67.4654 62.85 68.0654 63.45C68.6988 64.05 69.0154 64.9333 69.0154 66.1C69.0154 67.2667 68.6988 68.15 68.0654 68.75C67.4654 69.35 66.5821 69.65 65.4154 69.65H53.5654V76.9H66.5154C67.7154 76.9 68.6154 77.2167 69.2154 77.85C69.8154 78.45 70.1154 79.3167 70.1154 80.45C70.1154 81.6167 69.8154 82.5 69.2154 83.1C68.6154 83.7 67.7154 84 66.5154 84H49.5654ZM102.728 84.45C101.262 84.45 100.128 84.05 99.3283 83.25C98.5283 82.4167 98.1283 81.25 98.1283 79.75V56.25H88.9283V62C88.9283 64.5667 88.7283 66.9333 88.3283 69.1C87.9283 71.2667 87.345 73.25 86.5783 75.05C85.8117 76.85 84.8617 78.4667 83.7283 79.9C82.595 81.3333 81.3117 82.5667 79.8783 83.6C78.8783 84.3333 77.845 84.6 76.7783 84.4C75.7117 84.2333 74.7783 83.65 73.9783 82.65C73.2117 81.6167 72.945 80.5833 73.1783 79.55C73.4117 78.5167 74.0283 77.6 75.0283 76.8C76.0283 76 76.8617 75.0667 77.5283 74C78.2283 72.9 78.795 71.65 79.2283 70.25C79.695 68.8167 80.0283 67.2167 80.2283 65.45C80.4283 63.6833 80.5283 61.7333 80.5283 59.6V53.5C80.5283 51.9667 80.9283 50.8 81.7283 50C82.5617 49.1667 83.745 48.75 85.2783 48.75H102.528C104.062 48.75 105.245 49.1667 106.078 50C106.912 50.8 107.328 51.9667 107.328 53.5V79.75C107.328 81.25 106.928 82.4167 106.128 83.25C105.328 84.05 104.195 84.45 102.728 84.45ZM115.361 84.45C114.327 84.45 113.461 84.2167 112.761 83.75C112.061 83.25 111.627 82.5833 111.461 81.75C111.294 80.8833 111.444 79.9167 111.911 78.85L124.361 52.05C124.961 50.75 125.694 49.8 126.561 49.2C127.461 48.6 128.477 48.3 129.611 48.3C130.744 48.3 131.727 48.6 132.561 49.2C133.427 49.8 134.177 50.75 134.811 52.05L147.261 78.85C147.794 79.9167 147.977 80.8833 147.811 81.75C147.677 82.6167 147.261 83.2833 146.561 83.75C145.894 84.2167 145.061 84.45 144.061 84.45C142.727 84.45 141.694 84.15 140.961 83.55C140.261 82.95 139.627 81.9833 139.061 80.65L136.361 74.3L139.861 76.85H119.261L122.811 74.3L120.111 80.65C119.511 81.9833 118.894 82.95 118.261 83.55C117.627 84.15 116.661 84.45 115.361 84.45ZM129.511 58.35L123.711 72.2L122.311 69.8H136.861L135.461 72.2L129.611 58.35H129.511Z" fill="#F9F9F9"/>
</svg>
